<svg width="767" height="254" viewBox="0 0 767 254" fill="none" xmlns="http://www.w3.org/2000/svg">
<g clip-path="url(#clip0_3332_22871)">
<path d="M0 168L767 254H0V168Z" fill="white"/>
<path d="M3203.51 -559.552C3223.16 -407.442 3011.01 -279.712 2880.41 -212.292C2725.61 -133.642 2559.13 -74.5525 2390.25 -24.1725C1966.62 99.8975 1524.41 170.268 1080.51 205.598C768.944 229.208 455.019 241.218 142.812 218.628C-14.3427 206.548 -171.531 185.518 -322.39 143.338C-376.817 127.688 -431.029 109.898 -481.331 85.3976C-553.007 50.0376 -619.156 -0.0124817 -654.288 -66.9225C-709.303 -172.882 -646.488 -270.512 -560.072 -344.872C-279.899 -579.532 292.721 -722.512 668.692 -794.582C1306.2 -913.282 2161.8 -976.022 2793.43 -825.712C2939.8 -788.232 3179.84 -711.092 3203.51 -559.562V-559.552ZM3203.51 -559.552C3184.95 -678.632 3034.3 -747.712 2920.09 -787.702C2431.97 -946.882 1713.01 -918.892 1198.49 -861.682C692.384 -804.862 -172.153 -644.022 -543.015 -329.682C-615.776 -265.942 -682.897 -168.722 -625.136 -79.9825C-598.9 -39.6025 -554.94 -11.0625 -510.155 12.2675C-482.484 26.5675 -453.795 39.2476 -424.733 51.2476C-325.939 92.3176 -220.307 119.288 -113.792 140.638C320.833 223.448 771.657 228.368 1213.11 189.018C1523.5 160.898 1832.09 114.028 2133.73 43.0375C2391.39 -18.8925 2647.49 -95.2025 2880.37 -212.352C3011.83 -280.202 3222.98 -407.572 3203.5 -559.552H3203.51Z" fill="url(#paint0_linear_3332_22871)"/>
<path d="M3294.57 -466.138C3301.92 -362.838 3220.81 -275.478 3136.8 -212.028C3050.18 -147.098 2950.72 -97.0081 2848.74 -53.5381C2643.62 32.6618 2425.53 92.3719 2205 138.922C1469.86 290.452 496.608 324.172 -214.732 80.8618C-299.012 50.6918 -380.127 13.0119 -453.77 -34.3481C-510.13 -70.6481 -563.63 -114.208 -590.804 -172.448C-639.896 -277.568 -578.54 -384.278 -494.373 -459.508C-195.945 -720.718 424.829 -844.258 833.66 -897.998C1469.07 -978.288 2315.5 -987.738 2917.95 -780.358C3068.23 -725.758 3280.81 -626.128 3294.58 -466.148L3294.57 -466.138ZM3294.57 -466.138C3291 -516.508 3264.58 -563.538 3228.41 -601.858C3177.34 -655.808 3110.34 -695.898 3040.81 -729.068C2570.11 -942.618 1832.08 -959.258 1308.59 -927.018C903.607 -900.068 498.653 -839.798 114.08 -722.658C-54.7397 -669.858 -222.09 -606.668 -368.201 -514.098C-452.99 -458.888 -542.538 -385.748 -567.632 -292.238C-584.972 -227.038 -560.047 -159.148 -515.895 -106.158C-469.674 -49.5881 -404.136 -7.83817 -334.935 24.5618C-215.116 80.9718 -84.7057 117.692 46.8802 145.752C222.833 182.752 402.685 203.232 582.843 215.402C1304.82 261.072 2325.29 194.182 2967.56 -112.038C3109.11 -182.628 3304.9 -305.898 3294.57 -466.148V-466.138Z" fill="url(#paint1_linear_3332_22871)"/>
</g>
<defs>
<linearGradient id="paint0_linear_3332_22871" x1="-436.235" y1="-604.744" x2="2628.86" y2="1649.99" gradientUnits="userSpaceOnUse">
<stop stop-color="#22326E"/>
<stop offset="1" stop-color="#4260D4"/>
</linearGradient>
<linearGradient id="paint1_linear_3332_22871" x1="-608.287" y1="-346.451" x2="3295.03" y2="-346.451" gradientUnits="userSpaceOnUse">
<stop stop-color="#DF4661"/>
<stop offset="1" stop-color="#BC2630"/>
</linearGradient>
<clipPath id="clip0_3332_22871">
<rect width="767" height="254" fill="white"/>
</clipPath>
</defs>
</svg>
