<svg width="1440" height="390" viewBox="0 0 1440 390" fill="none" xmlns="http://www.w3.org/2000/svg">
<g clip-path="url(#clip0_2587_19635)">
<path d="M1439.5 391L-0.0017239 391L-0.00172504 247.5L705.998 355.5L1439.5 371.5L1439.5 391Z" fill="white"/>
<path d="M3166.82 -431.33C3184.2 -279.22 2996.52 -151.49 2880.98 -84.0698C2744.03 -5.4198 2596.75 53.6702 2447.35 104.05C2072.58 228.12 1681.37 298.49 1288.66 333.82C1013.03 357.43 735.31 369.44 459.11 346.85C320.08 334.77 181.02 313.74 47.5603 271.56C-0.589691 255.91 -48.5497 238.12 -93.0497 213.62C-156.46 178.26 -214.98 128.21 -246.06 61.3002C-294.73 -44.6599 -239.16 -142.29 -162.71 -216.65C85.1503 -451.31 591.73 -594.29 924.34 -666.36C1488.32 -785.06 2245.25 -847.8 2804.03 -697.49C2933.52 -660.01 3145.88 -582.87 3166.82 -431.34V-431.33ZM3166.82 -431.33C3150.4 -550.41 3017.12 -619.49 2916.08 -659.48C2484.26 -818.66 1848.22 -790.67 1393.04 -733.46C945.3 -676.64 180.47 -515.8 -147.62 -201.46C-211.99 -137.72 -271.37 -40.4998 -220.27 48.2402C-197.06 88.6202 -158.17 117.16 -118.55 140.49C-94.0697 154.79 -68.6897 167.47 -42.9797 179.47C44.4203 220.54 137.87 247.51 232.1 268.86C616.6 351.67 1015.43 356.59 1405.97 317.24C1680.56 289.12 1953.56 242.25 2220.41 171.26C2448.36 109.33 2674.92 33.0202 2880.94 -84.1298C2997.24 -151.98 3184.04 -279.35 3166.81 -431.33H3166.82Z" fill="url(#paint0_linear_2587_19635)"/>
<path d="M3247.37 -333.94C3253.87 -230.64 3182.12 -143.28 3107.8 -79.83C3031.17 -14.9 2943.18 35.1901 2852.96 78.6601C2671.5 164.86 2478.56 224.57 2283.46 271.12C1633.11 422.65 772.101 456.37 142.801 213.06C68.2413 182.89 -3.51874 145.21 -68.6687 97.8501C-118.529 61.5501 -165.859 17.9901 -189.899 -40.2499C-233.329 -145.37 -179.049 -252.08 -104.589 -327.31C159.421 -588.52 708.601 -712.06 1070.28 -765.8C1632.41 -846.09 2381.22 -855.54 2914.19 -648.16C3047.14 -593.56 3235.2 -493.93 3247.38 -333.95L3247.37 -333.94ZM3247.37 -333.94C3244.21 -384.31 3220.84 -431.34 3188.84 -469.66C3143.66 -523.61 3084.39 -563.7 3022.88 -596.87C2606.46 -810.42 1953.55 -827.06 1490.44 -794.82C1132.16 -767.87 773.911 -707.6 433.691 -590.46C284.341 -537.66 136.291 -474.47 7.03127 -381.9C-67.9787 -326.69 -147.199 -253.55 -169.399 -160.04C-184.739 -94.8399 -162.689 -26.9499 -123.629 26.0401C-82.7387 82.6101 -24.7587 124.36 36.4613 156.76C142.461 213.17 257.831 249.89 374.241 277.95C529.901 314.95 689.011 335.43 848.391 347.6C1487.1 393.27 2389.88 326.38 2958.08 20.1601C3083.3 -50.4299 3256.51 -173.7 3247.37 -333.95V-333.94Z" fill="url(#paint1_linear_2587_19635)"/>
</g>
<defs>
<linearGradient id="paint0_linear_2587_19635" x1="-53.1554" y1="-476.522" x2="2882.49" y2="1433.93" gradientUnits="userSpaceOnUse">
<stop stop-color="#22326E"/>
<stop offset="1" stop-color="#4260D4"/>
</linearGradient>
<linearGradient id="paint1_linear_2587_19635" x1="-205.365" y1="-214.253" x2="3247.78" y2="-214.253" gradientUnits="userSpaceOnUse">
<stop stop-color="#DF4661"/>
<stop offset="1" stop-color="#BC2630"/>
</linearGradient>
<clipPath id="clip0_2587_19635">
<rect width="1440" height="390" fill="white"/>
</clipPath>
</defs>
</svg>
