<svg width="375" height="254" viewBox="0 0 375 254" fill="none" xmlns="http://www.w3.org/2000/svg">
<g clip-path="url(#clip0_2594_19668)">
<path d="M0 166L375 252H0V166Z" fill="white"/>
<path d="M1566.26 -559.552C1575.86 -407.442 1472.14 -279.712 1408.28 -212.292C1332.6 -133.642 1251.2 -74.5525 1168.64 -24.1725C961.517 99.8975 745.312 170.268 528.279 205.598C375.951 229.208 222.467 241.218 69.8233 218.628C-7.01242 206.548 -83.8647 185.518 -157.622 143.338C-184.233 127.688 -210.738 109.898 -235.331 85.3976C-270.375 50.0376 -302.717 -0.0124512 -319.893 -66.9225C-346.791 -172.883 -316.08 -270.512 -273.829 -344.872C-136.848 -579.532 143.117 -722.512 326.935 -794.582C638.622 -913.282 1056.94 -976.022 1365.76 -825.712C1437.32 -788.232 1554.68 -711.092 1566.26 -559.562V-559.552ZM1566.26 -559.552C1557.18 -678.632 1483.52 -747.712 1427.68 -787.702C1189.03 -946.882 837.523 -918.892 585.965 -861.682C338.519 -804.862 -84.1687 -644.022 -265.49 -329.682C-301.064 -265.942 -333.881 -168.722 -305.64 -79.9825C-292.813 -39.6025 -271.32 -11.0625 -249.424 12.2675C-235.895 26.5675 -221.868 39.2476 -207.66 51.2476C-159.358 92.3176 -107.712 119.288 -55.6351 140.638C156.861 223.448 377.277 228.368 593.111 189.018C744.865 160.898 895.74 114.028 1043.22 43.0375C1169.19 -18.8925 1294.4 -95.2025 1408.26 -212.352C1472.54 -280.202 1575.77 -407.572 1566.25 -559.552H1566.26Z" fill="url(#paint0_linear_2594_19668)"/>
<path d="M1610.77 -466.138C1614.37 -362.838 1574.71 -275.478 1533.64 -212.028C1491.29 -147.098 1442.66 -97.0082 1392.8 -53.5381C1292.52 32.6619 1185.89 92.3718 1078.06 138.922C718.643 290.452 242.8 324.172 -104.986 80.8618C-146.192 50.6918 -185.851 13.0118 -221.856 -34.3481C-249.412 -70.6481 -275.569 -114.208 -288.855 -172.448C-312.857 -277.568 -282.858 -384.278 -241.708 -459.508C-95.8009 -720.718 207.707 -844.258 407.591 -897.998C718.256 -978.288 1132.09 -987.738 1426.64 -780.358C1500.11 -725.758 1604.05 -626.128 1610.78 -466.148L1610.77 -466.138ZM1610.77 -466.138C1609.03 -516.508 1596.11 -563.538 1578.43 -601.858C1553.46 -655.808 1520.7 -695.898 1486.71 -729.068C1256.57 -942.618 895.736 -959.258 639.795 -927.018C441.79 -900.068 243.801 -839.798 55.776 -722.658C-26.7632 -669.858 -108.584 -606.668 -180.02 -514.098C-221.475 -458.888 -265.256 -385.748 -277.525 -292.238C-286.003 -227.038 -273.817 -159.148 -252.23 -106.158C-229.632 -49.5881 -197.589 -7.8382 -163.755 24.5618C-105.174 80.9718 -41.414 117.692 22.9206 145.752C108.947 182.752 196.88 203.232 284.962 215.402C637.949 261.072 1136.88 194.182 1450.9 -112.038C1520.1 -182.628 1615.82 -305.898 1610.77 -466.148V-466.138Z" fill="url(#paint1_linear_2594_19668)"/>
</g>
<defs>
<linearGradient id="paint0_linear_2594_19668" x1="-213.283" y1="-604.744" x2="1831.7" y2="130.745" gradientUnits="userSpaceOnUse">
<stop stop-color="#22326E"/>
<stop offset="1" stop-color="#4260D4"/>
</linearGradient>
<linearGradient id="paint1_linear_2594_19668" x1="-297.402" y1="-346.451" x2="1611" y2="-346.451" gradientUnits="userSpaceOnUse">
<stop stop-color="#DF4661"/>
<stop offset="1" stop-color="#BC2630"/>
</linearGradient>
<clipPath id="clip0_2594_19668">
<rect width="375" height="254" fill="white"/>
</clipPath>
</defs>
</svg>
