<svg width="30" height="30" viewBox="0 0 30 30" fill="none" xmlns="http://www.w3.org/2000/svg">
<rect width="30" height="30" rx="15" fill="#DF4661"/>
<path d="M15.9287 12.2901L17.8988 14.2443H10.2619C10.2356 14.2443 10.2096 14.2456 10.184 14.2481C9.7998 14.2868 9.5 14.6087 9.5 15C9.5 15.4173 9.8411 15.7557 10.2619 15.7557H17.8988L15.9287 17.7098C15.6312 18.005 15.6312 18.4835 15.9287 18.7787C16.2263 19.0738 16.7086 19.0738 17.0062 18.7787L20.2768 15.5344C20.5744 15.2392 20.5744 14.7607 20.2768 14.4656L17.0062 11.2213C16.7086 10.9262 16.2263 10.9262 15.9287 11.2213C15.8915 11.2582 15.859 11.298 15.8311 11.3399C15.6359 11.6332 15.6684 12.0319 15.9287 12.2901Z" fill="white"/>
</svg>
