<svg width="15" height="9" viewBox="0 0 15 9" fill="none" xmlns="http://www.w3.org/2000/svg">
<path d="M12.581 0.41498L7.49995 5.49603L2.41891 0.414981C1.86557 -0.138326 0.968475 -0.138325 0.414999 0.414981C0.34585 0.484272 0.285342 0.558806 0.233481 0.637308C-0.129694 1.18738 -0.069186 1.93485 0.414999 2.41903L6.498 8.50203C6.76383 8.76772 7.12417 8.91693 7.49995 8.91693C7.87588 8.91693 8.23622 8.76772 8.50191 8.50203L14.585 2.41903C15.1383 1.86555 15.1383 0.968457 14.585 0.41498C14.5158 0.345873 14.4413 0.285354 14.3627 0.233478C13.8127 -0.129669 13.0652 -0.069149 12.581 0.41498Z" fill="#1C64F2"/>
</svg>
