<svg width="22" height="20" viewBox="0 0 22 20" fill="none" xmlns="http://www.w3.org/2000/svg">
<path d="M0 1C0 0.44772 0.547213 0 1.22222 0H20.7778C21.4528 0 22 0.44772 22 1C22 1.55229 21.4528 2 20.7778 2H1.22222C0.547213 2 0 1.55229 0 1Z" fill="#22326E"/>
<path d="M1.22222 9C0.547213 9 0 9.4477 0 10C0 10.5522 0.547213 11 1.22222 11H20.7778C21.4528 11 22 10.5522 22 10C22 9.4477 21.4528 9 20.7778 9H1.22222Z" fill="#22326E"/>
<path d="M0 19C0 18.4477 0.547213 18 1.22222 18H20.7778C21.4528 18 22 18.4477 22 19C22 19.5523 21.4528 20 20.7778 20H1.22222C0.547213 20 0 19.5523 0 19Z" fill="#22326E"/>
</svg>
