<svg width="32" height="29" viewBox="0 0 32 29" fill="none" xmlns="http://www.w3.org/2000/svg">
<path d="M26.8749 20.1731C32.8014 12.519 31.2009 4.92905 26.9439 2.26921C22.9209 -0.243963 19.4094 0.768944 17.3004 2.38226L15.7494 3.56475M26.8749 20.1731C25.4529 22.011 23.5974 23.8504 21.2394 25.6272C18.9219 27.3765 17.7624 28.2504 15.7494 28.2504C13.7364 28.2504 12.5784 27.3765 10.2594 25.6272C-1.91751 16.4484 -0.723511 5.56765 4.55497 2.26921C8.57795 -0.243963 12.0894 0.768944 14.1984 2.38226L15.7494 3.56475M26.8749 20.1731L18.5874 10.5971C18.4228 10.4076 18.1977 10.2836 17.9519 10.2473C17.7061 10.2109 17.4556 10.2645 17.2449 10.3984L13.9659 12.4854C13.3229 12.8997 12.5475 13.0447 11.8019 12.89C11.0563 12.7354 10.3983 12.293 9.9656 11.6555C9.5329 11.0181 9.35901 10.2349 9.48032 9.46977C9.60162 8.7047 10.0087 8.01704 10.6164 7.55069L15.7494 3.56475" fill="#424242"/>
<path d="M26.8749 20.1731C32.8014 12.519 31.2009 4.92905 26.9439 2.26921C22.9209 -0.243963 19.4094 0.768944 17.3004 2.38226L15.7494 3.56475M26.8749 20.1731C25.4529 22.011 23.5974 23.8504 21.2394 25.6272C18.9219 27.3765 17.7624 28.2504 15.7494 28.2504C13.7364 28.2504 12.5784 27.3765 10.2594 25.6272C-1.91751 16.4484 -0.723511 5.56765 4.55497 2.26921C8.57795 -0.243963 12.0894 0.768944 14.1984 2.38226L15.7494 3.56475M26.8749 20.1731L18.5874 10.5971C18.4228 10.4076 18.1977 10.2836 17.9519 10.2473C17.7061 10.2109 17.4556 10.2645 17.2449 10.3984L13.9659 12.4854C13.3229 12.8997 12.5475 13.0447 11.8019 12.89C11.0563 12.7354 10.3983 12.293 9.9656 11.6555C9.5329 11.0181 9.35901 10.2349 9.48032 9.46977C9.60162 8.7047 10.0087 8.01704 10.6164 7.55069L15.7494 3.56475" stroke="white" stroke-width="1.5" stroke-linecap="round" stroke-linejoin="round"/>
</svg>
