<svg width="30" height="30" viewBox="0 0 30 30" fill="none" xmlns="http://www.w3.org/2000/svg">
<path d="M15 0C23.2845 0 30 6.7155 30 15C30 23.2845 23.2845 30 15 30C6.7155 30 0 23.2845 0 15C0 6.7155 6.7155 0 15 0ZM20.5605 7.18945C19.9748 6.60367 19.0252 6.60367 18.4395 7.18945L15 10.6289L11.5605 7.18945C10.9748 6.60367 10.0252 6.60367 9.43945 7.18945C8.85372 7.77524 8.85369 8.72478 9.43945 9.31055L12.1289 12H10.5C9.67157 12 9 12.6716 9 13.5C9.00006 14.3284 9.67161 15 10.5 15H13.5059V16.5H10.5C9.67157 16.5 9 17.1716 9 18C9.00006 18.8284 9.67161 19.5 10.5 19.5H13.5059V22.5C13.5059 23.3283 14.1775 23.9999 15.0059 24C15.8342 24 16.5058 23.3284 16.5059 22.5V19.5H19.5C20.3284 19.5 20.9999 18.8284 21 18C21 17.1716 20.3284 16.5 19.5 16.5H16.5059V15H19.5C20.3284 15 20.9999 14.3284 21 13.5C21 12.6716 20.3284 12 19.5 12H17.8711L20.5605 9.31055C21.1463 8.72478 21.1463 7.77524 20.5605 7.18945Z" fill="#424242"/>
</svg>
