<svg width="21" height="27" viewBox="0 0 21 27" fill="none" xmlns="http://www.w3.org/2000/svg">
<rect x="4" y="7" width="17" height="16" fill="white"/>
<path fill-rule="evenodd" clip-rule="evenodd" d="M21 7.86837C21 7.15229 20.7235 6.46553 20.2311 5.95917L15.2064 0.790816C14.714 0.284458 14.0464 0 13.3502 0H2.625C1.17525 0 0 1.20883 0 2.7V24.3C0 25.7911 1.17525 27 2.625 27H18.375C19.8248 27 21 25.7911 21 24.3V7.86837ZM15.0938 12.15C15.8186 12.15 16.4062 11.5456 16.4062 10.8C16.4062 10.0544 15.8186 9.44999 15.0938 9.44999H5.90625C5.18138 9.44999 4.59375 10.0544 4.59375 10.8C4.59375 11.5456 5.18138 12.15 5.90625 12.15H15.0938ZM5.90625 18.225C5.18138 18.225 4.59375 17.6206 4.59375 16.875C4.59375 16.1294 5.18138 15.525 5.90625 15.525H12.4688C13.1936 15.525 13.7812 16.1294 13.7812 16.875C13.7812 17.6206 13.1936 18.225 12.4688 18.225H5.90625Z" fill="#DF4661"/>
</svg>
