<svg width="30" height="24" viewBox="0 0 30 24" fill="none" xmlns="http://www.w3.org/2000/svg">
<path d="M0 3.2C0 1.435 1.49479 0 3.33333 0H18.3333C20.1719 0 21.6667 1.435 21.6667 3.2V4.8H24.3073C25.1927 4.8 26.0417 5.135 26.6667 5.735L29.026 8C29.651 8.6 30 9.415 30 10.265V17.6C30 19.365 28.5052 20.8 26.6667 20.8H26.4948C25.9531 22.645 24.1823 24 22.0833 24C19.9844 24 18.2187 22.645 17.6719 20.8H12.3281C11.7865 22.645 10.0156 24 7.91667 24C5.81771 24 4.05208 22.645 3.50521 20.8H3.33333C1.49479 20.8 0 19.365 0 17.6V3.2ZM26.6667 12.8V10.265L24.3073 8H21.6667V12.8H26.6667ZM10 19.6C10 18.495 9.06771 17.6 7.91667 17.6C6.76562 17.6 5.83333 18.495 5.83333 19.6C5.83333 20.705 6.76562 21.6 7.91667 21.6C9.06771 21.6 10 20.705 10 19.6ZM22.0833 21.6C23.2344 21.6 24.1667 20.705 24.1667 19.6C24.1667 18.495 23.2344 17.6 22.0833 17.6C20.9323 17.6 20 18.495 20 19.6C20 20.705 20.9323 21.6 22.0833 21.6Z" fill="#424242"/>
</svg>
