<svg width="30" height="19" viewBox="0 0 30 19" fill="none" xmlns="http://www.w3.org/2000/svg">
<path d="M28.5003 7.74179C28.1026 7.74179 27.7211 7.90479 27.4399 8.19492C27.1586 8.48506 27.0006 8.87857 27.0006 9.28888V13.2958L17.5675 3.54917C17.4281 3.40416 17.2623 3.28907 17.0795 3.21053C16.8968 3.13198 16.7007 3.09154 16.5028 3.09154C16.3048 3.09154 16.1088 3.13198 15.926 3.21053C15.7433 3.28907 15.5774 3.40416 15.438 3.54917L10.504 8.65457L2.57061 0.454987C2.28821 0.163664 1.9052 0 1.50583 0C1.10646 0 0.723445 0.163664 0.441047 0.454987C0.158649 0.74631 0 1.14143 0 1.55342C0 1.96541 0.158649 2.36053 0.441047 2.65186L9.43921 11.9344C9.57862 12.0794 9.74449 12.1945 9.92724 12.2731C10.11 12.3516 10.306 12.392 10.504 12.392C10.702 12.392 10.898 12.3516 11.0807 12.2731C11.2635 12.1945 11.4294 12.0794 11.5688 11.9344L16.5028 6.829L24.886 15.4772H21.0018C20.6041 15.4772 20.2226 15.6402 19.9414 15.9304C19.6602 16.2205 19.5021 16.614 19.5021 17.0243C19.5021 17.4347 19.6602 17.8282 19.9414 18.1183C20.2226 18.4084 20.6041 18.5714 21.0018 18.5714H28.5003C28.6963 18.569 28.8899 18.5269 29.0702 18.4477C29.4366 18.2907 29.7278 17.9903 29.88 17.6122C29.9569 17.4262 29.9976 17.2265 30 17.0243V9.28888C30 8.87857 29.842 8.48506 29.5608 8.19492C29.2795 7.90479 28.8981 7.74179 28.5003 7.74179Z" fill="#424242"/>
</svg>
