<svg width="25" height="25" viewBox="0 0 25 25" fill="none" xmlns="http://www.w3.org/2000/svg">
<circle cx="12.5" cy="12.5" r="11.5" fill="white"/>
<path fill-rule="evenodd" clip-rule="evenodd" d="M25 12.5C25 19.4035 19.4035 25 12.5 25C5.59644 25 0 19.4035 0 12.5C0 5.59644 5.59644 0 12.5 0C19.4035 0 25 5.59644 25 12.5ZM11.8449 18.6875C11.4996 18.6875 11.2199 18.4076 11.2199 18.0625V10.733C11.2199 10.3877 11.4996 10.108 11.8449 10.108H13.1476C13.4929 10.108 13.7726 10.3877 13.7726 10.733V18.0625C13.7726 18.4076 13.4929 18.6875 13.1476 18.6875H11.8449ZM12.5023 8.29644C12.1228 8.29644 11.7971 8.17059 11.5255 7.9189C11.2578 7.66323 11.124 7.3576 11.124 7.00204C11.124 6.65048 11.2578 6.34886 11.5255 6.09718C11.7971 5.84149 12.1228 5.71365 12.5023 5.71365C12.8818 5.71365 13.2054 5.84149 13.473 6.09718C13.7448 6.34886 13.8805 6.65048 13.8805 7.00204C13.8805 7.3576 13.7448 7.66323 13.473 7.9189C13.2054 8.17059 12.8818 8.29644 12.5023 8.29644Z" fill="#DF4661"/>
</svg>
