<svg width="16" height="16" viewBox="0 0 16 16" fill="none" xmlns="http://www.w3.org/2000/svg">
<path fill-rule="evenodd" clip-rule="evenodd" d="M6.70188 0C3.00052 0 0 3.00052 0 6.70186C0 10.4032 3.00052 13.4037 6.70188 13.4037C8.26806 13.4037 9.70975 12.8657 10.8505 11.9656L14.654 15.7691C14.9619 16.077 15.4611 16.077 15.7691 15.7691C16.077 15.4612 16.077 14.9619 15.7691 14.654L11.9655 10.8505C12.8657 9.70973 13.4037 8.26812 13.4037 6.70186C13.4037 3.00052 10.4032 0 6.70188 0ZM1.5769 6.70186C1.5769 3.87143 3.87142 1.57691 6.70188 1.57691C9.53227 1.57691 11.8268 3.87143 11.8268 6.70186C11.8268 8.11729 11.254 9.39743 10.3257 10.3258C9.39744 11.2541 8.11731 11.8268 6.70188 11.8268C3.87142 11.8268 1.5769 9.53233 1.5769 6.70186Z" fill="#1C64F2"/>
</svg>
