<svg width="30" height="32" viewBox="0 0 30 32" fill="none" xmlns="http://www.w3.org/2000/svg">
<path fill-rule="evenodd" clip-rule="evenodd" d="M4.86325 0.00953305L20.2086 0.00238323V5.49103L4.86325 5.49818C4.17015 5.4989 3.495 5.29595 2.93665 4.91904L0.449195 3.23408C0.367583 3.17868 0.301263 3.10648 0.255564 3.02328C0.209864 2.94009 0.186058 2.84822 0.186058 2.75505C0.186058 2.66187 0.209864 2.57 0.255564 2.48681C0.301263 2.40361 0.367583 2.33141 0.449195 2.27601L2.93924 0.588665C3.49585 0.211872 4.16904 0.00813219 4.86065 0.00714968L4.86325 0.00953305ZM26.5259 5.48626L23.4542 5.48864V0H26.5363C28.1824 0.0238326 29.4418 1.36561 29.4418 2.74075C29.4418 4.11827 28.1824 5.46243 26.5363 5.48626H26.5259ZM11.126 10.9916C11.9958 11.3109 12.7358 11.6613 13.3772 12.0092V32C12.3873 31.3182 11.305 30.7574 10.1575 30.3317C8.24909 29.631 5.4968 29.0519 1.29825 29.0519C0.953934 29.0519 0.623718 28.9264 0.380249 28.7029C0.13678 28.4794 0 28.1763 0 27.8603V10.7294C0 10.4134 0.13678 10.1103 0.380249 9.88682C0.623718 9.66334 0.953934 9.5378 1.29825 9.5378C5.76424 9.5378 8.85408 10.1551 11.126 10.9916ZM19.8399 30.3317C18.4378 30.8489 17.4537 31.4423 16.6202 31.9976V12.0069C17.2616 11.6589 18.0042 11.3086 18.874 10.9892C21.1459 10.1527 24.2358 9.53541 28.7017 9.53541C29.0461 9.53541 29.3763 9.66096 29.6197 9.88443C29.8632 10.1079 30 10.411 30 10.727V27.8579C30 28.1739 29.8632 28.477 29.6197 28.7005C29.3763 28.924 29.0461 29.0495 28.7017 29.0495C24.5032 29.0495 21.7509 29.6287 19.8399 30.3317Z" fill="#424242"/>
</svg>
