<svg width="140" height="54" viewBox="0 0 140 54" fill="none" xmlns="http://www.w3.org/2000/svg">
<path d="M15.3949 0H18.7736L29.7152 25.9971H22.4192L19.579 18.0641H10.9797L7.57479 25.9971H3.49316L15.3949 0ZM12.0067 15.6904H18.7308L15.6713 7.14494L12.0091 15.6904H12.0067Z" fill="#898A89"/>
<path d="M43.7158 7.14268L33.2961 7.28986L33.3271 4.47461H50.9117L38.8717 23.2864L50.5805 23.0704V25.7907C50.5805 25.7907 32.2549 25.7599 31.3613 25.7907L43.7134 7.14506L43.7158 7.14268Z" fill="#898A89"/>
<path d="M80.9318 9.92906L80.5529 10.0477C79.7333 8.8229 78.7849 7.90427 77.7103 7.29184C76.6357 6.67942 75.4157 6.37321 74.048 6.37321C72.0251 6.37321 70.4406 7.14942 69.2921 8.69947C68.1436 10.2519 67.5718 12.4286 67.5718 15.2367C67.5718 17.8645 68.208 19.9367 69.4827 21.4464C70.7575 22.9585 72.4897 23.7133 74.6795 23.7133C75.9423 23.7133 77.0431 23.476 77.9796 23.0012C78.916 22.5265 79.9429 21.698 81.0604 20.5112L81.375 20.6299L80.9961 24.4539L79.9215 24.9572C78.194 25.6883 76.2688 26.0538 74.141 26.0538C70.412 26.0538 67.455 25.0569 65.2653 23.0606C63.0756 21.0642 61.9795 18.3772 61.9795 14.997C61.9795 11.6168 63.0732 9.03416 65.2653 7.06634C67.455 5.10089 70.4358 4.11816 74.2053 4.11816C75.7422 4.11816 77.0574 4.2772 78.1511 4.59291C78.6991 4.75195 79.2567 4.93473 79.8262 5.14124C80.3933 5.34776 80.9842 5.60175 81.5942 5.89609L80.9294 9.92906H80.9318Z" fill="#898A89"/>
<path d="M95.1644 4.12012C98.941 4.12012 101.977 5.11708 104.269 7.11339C106.561 9.1097 107.709 11.7564 107.709 15.0583C107.709 18.3601 106.54 20.9831 104.204 22.9889C101.867 24.9947 98.8099 25.9988 95.0333 25.9988C91.2567 25.9988 88.3616 25.0161 86.0909 23.0483C83.8202 21.0828 82.6836 18.4693 82.6836 15.2078C82.6836 11.9463 83.8178 9.18566 86.0909 7.16087C88.3616 5.13607 91.3853 4.12249 95.1644 4.12249V4.12012ZM88.1567 15.0583C88.1567 17.9614 88.7786 20.1665 90.0248 21.6762C91.2686 23.1859 93.0652 23.9408 95.4145 23.9408C97.7639 23.9408 99.4199 23.2002 100.664 21.7213C101.907 20.2401 102.532 18.1679 102.532 15.4998C102.532 13.3421 102.289 11.6211 101.798 10.3369C101.309 9.05273 100.483 8.06289 99.3198 7.36501C98.1571 6.66951 96.818 6.32057 95.3073 6.32057C92.9818 6.32057 91.209 7.06117 89.9867 8.54238C88.7643 10.0236 88.1544 12.1956 88.1544 15.0583H88.1567Z" fill="#898A89"/>
<path d="M111.375 4.35589H114.494L121.895 19.3175C121.895 19.3175 128.774 5.29589 129.175 4.38437H132.089C132.089 4.9968 132.625 10.8765 132.625 10.8765L133.037 13.9292L134.693 25.7266H129.522C129.522 24.027 128.395 10.9762 128.395 10.9762L121.118 25.7266H119.891L112.503 12.5524L111.087 25.7266H108.123L111.373 4.35352L111.375 4.35589Z" fill="#898A89"/>
<path d="M59.1131 13.625H50.9141V17.1524H59.1131V13.625Z" fill="#898A89"/>
<path d="M140 28.4805H0V30.1896H140V28.4805Z" fill="#424242"/>
<path d="M54.3096 36.3887H60.0782L66.1756 48.4923V36.3887H70.9029V53.9994H64.3147L59.025 42.8025V53.9994H54.3096V36.3887Z" fill="#625E78"/>
<path d="M73.4834 36.3887H87.8513V40.1487H78.8565V43.3983H87.2008V46.9898H78.8565V50.0115H88.1134V53.9994H73.4834V36.3887Z" fill="#625E78"/>
<path d="M89.1855 36.3887H105.483V40.1487H99.6886V53.9994H94.9804V40.1487H89.1855V36.3887Z" fill="#625E78"/>
<path d="M45.9085 32.506C37.7952 37.6689 33.0584 44.726 35.3291 48.27C37.5999 51.814 46.0204 50.5013 54.1337 45.3384C62.2469 40.1756 66.9837 33.1185 64.713 29.5745C62.4423 26.0305 54.0217 27.3432 45.9085 32.506ZM55.0415 42.7439C51.3387 46.6392 46.4112 47.9828 44.0356 45.742C41.66 43.5012 42.737 38.5258 46.4398 34.6305C50.1426 30.7352 55.0701 29.3917 57.4457 31.6325C59.8212 33.8733 58.7442 38.8486 55.0415 42.7439Z" fill="#BD1C21"/>
</svg>
