<svg width="30" height="29" viewBox="0 0 30 29" fill="none" xmlns="http://www.w3.org/2000/svg">
<path fill-rule="evenodd" clip-rule="evenodd" d="M20.7383 0.110708C21.2688 0.0336206 21.8043 -0.00331057 22.3404 0.000232665C23.003 0.000232665 23.5328 0.0484863 23.9426 0.110708C24.8904 0.256104 25.4221 1.07197 25.4509 1.89482C25.4713 2.47259 25.4943 3.32084 25.5108 4.46559C26.6617 4.4821 27.5138 4.50496 28.0947 4.52528C28.9226 4.55385 29.7428 5.08273 29.8883 6.02558C29.9521 6.4332 30 6.96018 30 7.61922C30 8.27826 29.9515 8.80524 29.8889 9.21286C29.7428 10.1557 28.9226 10.6846 28.0953 10.7132C27.5145 10.7335 26.6617 10.7563 25.5108 10.7728C25.4995 11.6299 25.4795 12.4869 25.4509 13.3436C25.4221 14.1665 24.8904 14.9823 23.9426 15.1277C23.5328 15.19 23.003 15.2382 22.3404 15.2382C21.6779 15.2382 21.1481 15.19 20.7383 15.1277C19.7904 14.9823 19.2587 14.1665 19.23 13.3436C19.2096 12.7658 19.1866 11.9176 19.17 10.7728C18.3085 10.7616 17.4472 10.7417 16.5862 10.7132C15.7583 10.6846 14.9381 10.1557 14.7926 9.21286C14.7146 8.68525 14.6773 8.15249 14.6809 7.61922C14.6809 6.96018 14.7294 6.4332 14.7919 6.02558C14.9381 5.08273 15.7583 4.55385 16.5855 4.52528C17.1664 4.50496 18.0191 4.4821 19.17 4.46559C19.1866 3.32084 19.2096 2.47323 19.23 1.89546C19.2587 1.07197 19.7904 0.255469 20.7383 0.110708ZM1.47 15.7925C1.13668 15.896 0.841461 16.0949 0.621306 16.3645C0.401151 16.6341 0.265848 16.9623 0.23234 17.308C0.128298 18.3518 0 19.9696 0 21.5874C0 23.0896 0.111064 24.5924 0.21 25.6349C0.248519 26.035 0.420101 26.4108 0.697577 26.7029C0.975053 26.995 1.34256 27.1867 1.74191 27.2476C4.44319 27.68 10.5479 28.5714 14.8615 28.5714C18.127 28.5714 24.6606 26.3848 27.7155 25.2946C28.7106 24.9391 29.4421 23.9696 29.1191 22.9689C28.6857 21.6293 27.766 21.1213 27.1302 20.929C26.6962 20.7975 26.2411 20.8509 25.7943 20.9277C23.7038 21.2889 17.2749 22.3632 14.8615 22.3632C13.7234 22.3632 12.1698 22.1562 11.2602 22.0185C11.0507 21.9855 10.86 21.8791 10.7227 21.7183C10.5853 21.5576 10.5104 21.3532 10.5115 21.1423C10.5115 20.6153 10.9634 20.2013 11.4913 20.2439L16.4157 20.6439C17.5309 20.734 18.5119 19.8458 18.2566 18.762C18.12 18.1798 17.9374 17.6953 17.7562 17.308C17.377 16.4998 16.5862 16.0153 15.7174 15.7931C13.9238 15.3341 10.597 14.6033 7.61106 14.6033C5.62277 14.6033 2.95213 15.3334 1.47 15.7925Z" fill="#424242"/>
</svg>
